<svg width="24" height="24" viewBox="0 0 24 24" fill="none" xmlns="http://www.w3.org/2000/svg">
  <!-- GitHub Octocat outline -->
  <path d="M12 2C6.477 2 2 6.477 2 12c0 4.42 2.865 8.17 6.839 9.49.5.092.682-.217.682-.482 0-.237-.008-.866-.013-1.7-2.782.603-3.369-1.34-3.369-1.34-.454-1.156-1.11-1.463-1.11-1.463-.908-.62.069-.608.069-.608 1.003.07 1.531 1.03 1.531 1.03.892 1.529 2.341 1.087 2.91.831.092-.646.35-1.086.636-1.336-2.22-.253-4.555-1.11-4.555-4.943 0-1.091.39-1.984 1.029-2.683-.103-.253-.446-1.27.098-2.647 0 0 .84-.268 2.75 1.026A9.578 9.578 0 0112 6.836c.85.004 1.705.114 2.504.336 1.909-1.294 2.747-1.026 2.747-1.026.546 1.377.203 2.394.1 2.647.64.699 1.028 1.592 1.028 2.683 0 3.842-2.339 4.687-4.566 4.935.359.309.678.919.678 1.852 0 1.336-.012 2.415-.012 2.743 0 .267.18.579.688.481C19.138 20.167 22 16.418 22 12c0-5.523-4.477-10-10-10z" fill="currentColor" fill-rule="evenodd" clip-rule="evenodd"/>

  <!-- Desktop/Code editor overlay - simple rectangular outline -->
  <g opacity="0.8">
    <!-- Monitor outline -->
    <rect x="16" y="16" width="6" height="4" rx="0.5" fill="none" stroke="currentColor" stroke-width="0.8"/>
    <!-- Monitor stand -->
    <line x1="18.5" y1="20" x2="18.5" y2="21.5" stroke="currentColor" stroke-width="0.8"/>
    <line x1="17" y1="21.5" x2="20" y2="21.5" stroke="currentColor" stroke-width="0.8"/>
    <!-- Screen content dots -->
    <circle cx="17.5" cy="17.5" r="0.3" fill="currentColor"/>
    <circle cx="19" cy="17.5" r="0.3" fill="currentColor"/>
    <circle cx="20.5" cy="17.5" r="0.3" fill="currentColor"/>
    <circle cx="17.5" cy="18.5" r="0.3" fill="currentColor"/>
    <circle cx="19" cy="18.5" r="0.3" fill="currentColor"/>
  </g>
</svg>